<svg width="512" height="512" viewBox="0 0 512 512" fill="none" xmlns="http://www.w3.org/2000/svg">
<path d="M256 506C394.071 506 506 394.071 506 256C506 117.929 394.071 6 256 6C117.929 6 6 117.929 6 256C6 394.071 117.929 506 256 506Z" fill="#FFAF10"/>
<path d="M304.897 396.868H280.935C281.559 399.094 281.893 401.442 281.893 403.867C281.893 418.166 270.298 429.76 256 429.76C241.701 429.76 230.106 418.166 230.106 403.867C230.106 401.442 230.44 399.094 231.065 396.868H207.102L197.444 469.825H314.554L304.897 396.868Z" fill="#E0D3CE"/>
<path d="M230.106 403.867C230.106 407.797 230.985 411.523 232.549 414.853H204.72L207.103 396.87H231.061C230.444 399.092 230.106 401.442 230.106 403.867V403.867Z" fill="#CDBFBB"/>
<path d="M279.451 414.853C281.014 411.523 281.893 407.797 281.893 403.867C281.893 401.442 281.555 399.092 280.938 396.87H304.895L307.278 414.853H279.451Z" fill="#CDBFBB"/>
<path d="M314.554 469.824H299.25L289.591 396.87H304.895L314.554 469.824Z" fill="#CDBFBB"/>
<path d="M333.942 476.163H178.057C174.557 476.163 171.719 473.325 171.719 469.825C171.719 466.324 174.557 463.487 178.057 463.487H333.942C337.443 463.487 340.28 466.325 340.28 469.825C340.28 473.325 337.443 476.163 333.942 476.163Z" fill="#756F6F"/>
<path d="M465.999 371.572H46V104.902C46 95.5674 53.5674 88 62.9017 88H449.098C458.433 88 466 95.5674 466 104.902V371.572H465.999Z" fill="#F8F3F1"/>
<path d="M465.999 104.902V371.572H446.985V104.902C446.985 95.5641 439.422 88 430.084 88H449.098C458.436 88 465.999 95.5633 465.999 104.902V104.902Z" fill="#EFE2DD"/>
<path d="M449.098 403.87H62.9017C53.5674 403.87 46 396.303 46 386.969V347.559H465.999V386.968C465.999 396.303 458.432 403.87 449.098 403.87V403.87Z" fill="#756F6F"/>
<path d="M465.999 347.555V386.969C465.999 396.306 458.436 403.871 449.098 403.871H430.084C439.422 403.871 446.985 396.307 446.985 386.969V347.555H465.999Z" fill="#5B5555"/>
<path d="M386.751 231.301H279.041L263.223 174.676L400.061 164.592L386.751 231.301Z" fill="#FCB44D"/>
<path d="M400.058 164.592L386.749 231.301H372.382L385.481 165.665L400.058 164.592Z" fill="#FCA62F"/>
<path d="M391.96 278.863H269.812C260.263 278.863 252.494 271.095 252.494 261.547C252.494 251.997 260.263 244.229 269.812 244.229H377.708L398.354 140.753C398.945 137.789 401.547 135.655 404.569 135.655H417.633C421.134 135.655 423.971 138.493 423.971 141.993C423.971 145.494 421.133 148.331 417.633 148.331H409.768L389.122 251.807C388.531 254.771 385.929 256.905 382.907 256.905H269.812C267.253 256.905 265.171 258.986 265.171 261.546C265.171 264.105 267.253 266.186 269.812 266.186H391.96C395.461 266.186 398.297 269.024 398.297 272.524C398.298 276.026 395.461 278.863 391.96 278.863Z" fill="#9E9797"/>
<path d="M294.371 301.264C302.306 301.264 308.739 294.832 308.739 286.897C308.739 278.962 302.306 272.529 294.371 272.529C286.436 272.529 280.004 278.962 280.004 286.897C280.004 294.832 286.436 301.264 294.371 301.264Z" fill="#848181"/>
<path d="M308.737 286.896C308.737 293.646 304.088 299.311 297.807 300.85C299.361 298.548 300.27 295.778 300.27 292.799C300.27 284.863 293.843 278.429 285.907 278.429C284.722 278.429 283.568 278.575 282.467 278.852C285.045 275.034 289.417 272.525 294.375 272.525C302.31 272.526 308.737 278.96 308.737 286.896V286.896Z" fill="#756F6F"/>
<path d="M366.625 301.264C374.56 301.264 380.993 294.832 380.993 286.897C380.993 278.962 374.56 272.529 366.625 272.529C358.69 272.529 352.257 278.962 352.257 286.897C352.257 294.832 358.69 301.264 366.625 301.264Z" fill="#848181"/>
<path d="M380.99 286.896C380.99 293.646 376.342 299.311 370.061 300.85C371.615 298.548 372.524 295.778 372.524 292.799C372.524 284.863 366.097 278.429 358.161 278.429C356.976 278.429 355.822 278.575 354.721 278.852C357.299 275.034 361.671 272.525 366.628 272.525C374.563 272.526 380.99 278.96 380.99 286.896V286.896Z" fill="#756F6F"/>
<path d="M299.425 216.133C295.924 216.133 293.087 213.295 293.087 209.795V192.048C293.087 188.547 295.925 185.711 299.425 185.711C302.925 185.711 305.763 188.548 305.763 192.048V209.795C305.763 213.295 302.925 216.133 299.425 216.133V216.133Z" fill="#FCA62F"/>
<path d="M320.974 216.133C317.473 216.133 314.636 213.295 314.636 209.795V192.048C314.636 188.547 317.474 185.711 320.974 185.711C324.474 185.711 327.312 188.548 327.312 192.048V209.795C327.313 213.295 324.475 216.133 320.974 216.133V216.133Z" fill="#FCA62F"/>
<path d="M342.523 216.133C339.022 216.133 336.186 213.295 336.186 209.795V192.048C336.186 188.547 339.023 185.711 342.523 185.711C346.024 185.711 348.861 188.548 348.861 192.048V209.795C348.861 213.295 346.024 216.133 342.523 216.133V216.133Z" fill="#FCA62F"/>
<path d="M364.072 216.133C360.571 216.133 357.735 213.295 357.735 209.795V192.048C357.735 188.547 360.572 185.711 364.072 185.711C367.573 185.711 370.41 188.548 370.41 192.048V209.795C370.411 213.295 367.573 216.133 364.072 216.133V216.133Z" fill="#FCA62F"/>
<path d="M132.448 130.242C130.007 127.948 126.204 127.948 123.764 130.242L109.514 143.64C106.964 146.038 106.841 150.049 109.239 152.599C111.636 155.149 115.647 155.274 118.198 152.875L121.768 149.518V165.569C121.768 169.07 124.605 171.906 128.106 171.906C131.606 171.906 134.443 169.069 134.443 165.569V149.518L138.013 152.875C139.237 154.025 140.797 154.596 142.354 154.596C144.041 154.596 145.725 153.926 146.972 152.599C149.37 150.049 149.247 146.038 146.696 143.64L132.448 130.242Z" fill="#EFE2DD"/>
<path d="M197.969 143.64L183.719 130.242C181.278 127.948 177.475 127.948 175.035 130.242L160.786 143.64C158.236 146.038 158.113 150.049 160.51 152.599C162.907 155.149 166.918 155.274 169.47 152.875L173.04 149.518V165.569C173.04 169.07 175.877 171.906 179.378 171.906C182.878 171.906 185.715 169.069 185.715 165.569V149.518L189.285 152.875C190.509 154.025 192.069 154.596 193.626 154.596C195.313 154.596 196.997 153.926 198.244 152.599C200.643 150.049 200.519 146.038 197.969 143.64V143.64Z" fill="#EFE2DD"/>
<path d="M203.606 240.406H107.267C102.6 240.406 98.8166 236.622 98.8166 231.955V206.407C98.8166 201.739 102.6 197.956 107.267 197.956H203.606C208.273 197.956 212.056 201.739 212.056 206.407V231.955C212.056 236.622 208.272 240.406 203.606 240.406Z" fill="#5BBD93"/>
<path d="M212.056 206.405V231.951C212.056 236.625 208.271 240.402 203.606 240.402H187.988C192.654 240.402 196.439 236.625 196.439 231.951V206.405C196.439 201.74 192.654 197.954 187.988 197.954H203.606C208.27 197.955 212.056 201.741 212.056 206.405Z" fill="#2DB181"/>
<path d="M142.355 281.392H98.8165C95.3163 281.392 92.4788 278.554 92.4788 275.054C92.4788 271.554 95.3163 268.716 98.8165 268.716H142.355C145.856 268.716 148.693 271.554 148.693 275.054C148.693 278.554 145.856 281.392 142.355 281.392V281.392Z" fill="#EFE2DD"/>
<path d="M212.056 303.842H98.8165C95.3163 303.842 92.4788 301.004 92.4788 297.504C92.4788 294.004 95.3163 291.166 98.8165 291.166H212.056C215.556 291.166 218.393 294.004 218.393 297.504C218.393 301.004 215.557 303.842 212.056 303.842V303.842Z" fill="#EFE2DD"/>
</svg>
